<?xml version="1.0" standalone="no"?>
<!DOCTYPE svg PUBLIC "-//W3C//DTD SVG 20010904//EN"
 "http://www.w3.org/TR/2001/REC-SVG-20010904/DTD/svg10.dtd">
<svg version="1.0" xmlns="http://www.w3.org/2000/svg"
 width="214.000000pt" height="214.000000pt" viewBox="0 0 214.000000 214.000000"
 preserveAspectRatio="xMidYMid meet">
<metadata>
Created by potrace 1.14, written by Peter Selinger 2001-2017
</metadata>
<g transform="translate(0.000000,214.000000) scale(0.100000,-0.100000)"
fill="#000000" stroke="none">
<path d="M555 1988 c-39 -68 -84 -147 -101 -178 -17 -30 -93 -162 -168 -293
l-137 -238 3 -390 c3 -325 6 -391 18 -403 13 -11 415 -249 535 -316 22 -12 47
-27 55 -34 8 -7 26 -17 40 -24 14 -7 34 -18 44 -24 101 -65 135 -82 176 -85
33 -3 51 1 69 15 l25 20 0 368 1 369 104 184 c128 227 282 495 286 499 2 3
379 -212 394 -224 2 -2 4 -167 4 -368 0 -202 4 -366 9 -366 5 0 24 10 43 23
l35 22 -3 389 -2 390 -45 28 c-25 15 -52 31 -60 35 -8 4 -35 19 -60 34 -25 15
-64 38 -86 51 -55 31 -307 178 -347 202 -18 11 -49 29 -69 40 -21 12 -178 103
-350 203 -172 100 -320 184 -328 188 -12 4 -34 -26 -85 -117z"/>
<path d="M1503 767 l-102 -61 0 -248 c0 -210 2 -248 14 -248 8 0 15 5 15 10 0
6 4 10 10 10 7 0 152 83 170 97 6 6 7 494 0 498 -3 2 -51 -24 -107 -58z"/>
</g>
</svg>
